<svg id="Group_459" data-name="Group 459" xmlns="http://www.w3.org/2000/svg" width="42.753" height="42.765" viewBox="0 0 42.753 42.765">
  <g id="Group_458" data-name="Group 458" transform="translate(0)">
    <path id="Path_860" data-name="Path 860" d="M50.467,24.119A21.376,21.376,0,1,1,29.084,2.737,21.4,21.4,0,0,1,50.467,24.119" transform="translate(-7.714 -2.737)" fill="#009b3a"/>
    <path id="Path_861" data-name="Path 861" d="M28.179,29.417,7.8,16.419,28.179,3.433,48.573,16.419Z" transform="translate(-6.807 4.954)" fill="#fedf00"/>
    <path id="Path_862" data-name="Path 862" d="M25.93,12.377A8.577,8.577,0,1,1,17.353,3.8a8.581,8.581,0,0,1,8.577,8.577" transform="translate(4.017 9.005)" fill="#002776"/>
    <path id="Path_863" data-name="Path 863" d="M9.257,4.418A9.384,9.384,0,0,0,8.8,5.731a19.626,19.626,0,0,1,16.492,4.722,7.081,7.081,0,0,0,.3-1.349A20.752,20.752,0,0,0,9.257,4.418" transform="translate(4.272 13.495)" fill="#fff"/>
    <path id="Path_864" data-name="Path 864" d="M9.582,4.489,9.51,4.356l-.12-.084-.157-.036-.157.036-.12.084-.084.133-.024.157.024.169.084.133.12.084.157.036.157-.036.12-.084.072-.133a.357.357,0,0,0,.024-.169l-.024-.157m-.145.277-.048.084-.072.06-.084.024-.1-.024-.072-.06-.048-.084L9,4.646l.012-.108.048-.1.072-.048.1-.024.1.024.06.06.048.084.012.108-.012.12" transform="translate(4.802 13.822)" fill="#009b3a"/>
    <path id="Path_865" data-name="Path 865" d="M9.573,4.808l-.06-.1-.084-.048V4.652l.12-.072L9.6,4.447l-.048-.133L9.5,4.266l-.06-.024L9.369,4.23H9.284l-.349.024.036.8.157-.012-.012-.313.145-.012.048.012.048.024.036.024.024.048.072.2.169-.012ZM9.4,4.555l-.048.024-.072.012L9.1,4.6l-.012-.241.2-.012.108.024.036.084-.012.06L9.4,4.555" transform="translate(5.774 13.755)" fill="#009b3a"/>
    <path id="Path_866" data-name="Path 866" d="M9.6,4.322a.409.409,0,0,0-.313-.1H9.022v.8h.265a.367.367,0,0,0,.422-.41A.373.373,0,0,0,9.6,4.322m-.108.494-.072.048-.133.024H9.179V4.346h.108l.133.024.072.048a.333.333,0,0,1,.06.193.345.345,0,0,1-.06.2" transform="translate(6.735 13.711)" fill="#009b3a"/>
    <path id="Path_867" data-name="Path 867" d="M9.268,4.888V4.672h.41v-.12l-.41-.012V4.346l.446.012V4.226h-.59l-.012.8h.6l.012-.133Z" transform="translate(7.725 13.71)" fill="#009b3a"/>
    <path id="Path_868" data-name="Path 868" d="M9.831,4.254l-.217.614-.157-.638H9.24l-.048.8h.145L9.361,4.7V4.386l.181.651.133.012L9.9,4.41l-.024.313-.012.325.145.012.036-.8Z" transform="translate(8.616 13.75)" fill="#009b3a"/>
    <path id="Path_869" data-name="Path 869" d="M9.953,4.444l.012-.12-.53-.072-.1.711.542.084L9.9,4.938l-.422-.072.036-.181.361.048.024-.12-.373-.048.024-.181Z" transform="translate(10.23 13.99)" fill="#009b3a"/>
    <path id="Path_870" data-name="Path 870" d="M10.223,4.537l-.036-.072-.048-.048-.06-.036-.084-.024-.3-.084-.229.759.157.048L9.7,4.79l.145.048.12.012.12-.012.072-.06.048-.1.012-.084v-.06m-.157.1-.024.048-.036.036-.048.012L9.9,4.718l-.036-.012H9.837L9.729,4.67,9.8,4.429l.1.036.084.024.048.024.024.024.012.024v.072" transform="translate(11.617 14.219)" fill="#009b3a"/>
    <path id="Path_871" data-name="Path 871" d="M10.354,4.573l-.024-.06-.048-.048-.06-.036L10.137,4.4,9.8,4.3l-.253.747.157.048.1-.3.145.048.036.024.036.036.012.048.012.048.012.217.145.048V5.043l-.024-.12-.06-.06.012-.012a.167.167,0,0,0,.133-.024l.084-.108a.209.209,0,0,0,.012-.145m-.157.1-.024.048-.036.024-.06.012-.06-.012-.181-.072.084-.217.181.06.1.06v.1" transform="translate(12.534 14.484)" fill="#009b3a"/>
    <path id="Path_872" data-name="Path 872" d="M10.383,4.551l-.072-.108a.3.3,0,0,0-.145-.084.252.252,0,0,0-.157-.024l-.145.036-.12.1-.072.157-.036.169.036.145.084.12.133.072a.252.252,0,0,0,.157.024l.145-.036.12-.1a.272.272,0,0,0,.072-.157l.036-.169-.036-.145m-.145.265-.048.108-.072.06-.084.036-.1-.012-.084-.048L9.8,4.888,9.793,4.78l.024-.108.048-.108.072-.06.084-.036.1.012.084.048.048.084.012.1-.024.108" transform="translate(13.517 14.856)" fill="#009b3a"/>
    <path id="Path_873" data-name="Path 873" d="M10.489,4.784l.012-.12-.036-.1-.072-.1-.12-.072-.157-.036-.145.024-.12.1-.084.133-.048.169.024.157.072.12.133.1.133.024a.2.2,0,0,0,.12-.012l-.012.072.1.048.169-.385-.3-.133L10.1,4.88l.157.072-.036.084-.108.024-.108-.024-.084-.06L9.875,4.9v-.1l.024-.12.072-.108.072-.06.1-.024.084.024.072.036.036.048.024.06-.012.06Z" transform="translate(14.423 15.213)" fill="#009b3a"/>
    <path id="Path_874" data-name="Path 874" d="M10.644,4.705l-.036-.048-.06-.048-.06-.048-.313-.169-.385.7.133.072.157-.265.133.072.036.024.024.048.012.048-.012.048-.024.2.145.084.024-.229V5.091l-.036-.084a.293.293,0,0,0,.145,0,.274.274,0,0,0,.108-.1.207.207,0,0,0,.024-.145l-.012-.06m-.157.133-.036.048-.036.024-.06-.012-.06-.024-.157-.084.108-.217.169.1.084.072-.012.1" transform="translate(15.208 15.545)" fill="#009b3a"/>
    <path id="Path_875" data-name="Path 875" d="M10.711,4.842l.072-.12-.518-.289-.4.7.53.3.06-.12-.385-.217.1-.181.361.193L10.591,5l-.349-.2.1-.169Z" transform="translate(16.08 15.991)" fill="#009b3a"/>
    <path id="Path_876" data-name="Path 876" d="M10.732,4.738l-.06-.1-.1-.084-.108-.06-.1-.012-.084.024-.072.048-.024.024v.024l-.024.084.024.084.048.084.084.1.06.06.024.048.012.048-.012.036-.036.036h-.108l-.06-.036-.06-.06-.036-.048-.012-.06.024-.072L10,4.822a.269.269,0,0,0-.036.229.508.508,0,0,0,.169.2l.12.048.108.024.1-.024.084-.084.036-.06V5.087l-.024-.06-.036-.06-.048-.06-.06-.072-.048-.048-.036-.048L10.31,4.69l.012-.036.036-.024.048-.012.048.012.06.036a.139.139,0,0,1,.072.193l.12.084.036-.108-.012-.1" transform="translate(16.975 16.572)" fill="#009b3a"/>
    <path id="Path_877" data-name="Path 877" d="M10.805,4.786l-.06-.1-.1-.084-.108-.06-.1-.012-.084.024-.072.06-.024.024-.012.024-.012.072.024.084.048.084L10.4,5l.06.06.024.048.012.048L10.48,5.2l-.036.036-.048.012-.06-.012-.06-.036-.06-.048-.036-.06-.012-.06.024-.072-.12-.072a.239.239,0,0,0-.036.217.407.407,0,0,0,.181.2l.108.048.108.024.1-.024.084-.072.024-.072.012-.072-.024-.06-.036-.06-.048-.06-.06-.06-.048-.06L10.4,4.786l-.012-.048.012-.024.036-.036.048-.012.048.012.06.036c.084.06.108.12.072.193l.12.084.036-.108-.012-.1" transform="translate(17.781 17.102)" fill="#009b3a"/>
    <path id="Path_878" data-name="Path 878" d="M10.88,4.888l-.048-.133-.12-.108-.145-.06L10.41,4.6l-.12.06-.12.133-.072.157a.679.679,0,0,0,0,.157l.06.133.133.108.145.06.132-.012.145-.072.12-.12.048-.157a.343.343,0,0,0,0-.157m-.133.12-.06.108-.072.084-.084.06h-.1l-.1-.024-.048-.06-.048-.1.012-.1.048-.108.072-.084.084-.06h.1l.084.024.072.072.036.084v.1" transform="translate(18.55 17.699)" fill="#009b3a"/>
    <path id="Path_879" data-name="Path 879" d="M10.031,4.26l.084.253h.253l-.2.157.084.253-.217-.169-.217.169L9.9,4.67l-.217-.157h.265Z" transform="translate(14.018 14.088)" fill="#fff"/>
    <path id="Path_880" data-name="Path 880" d="M9.925,4.451l.06.193h.2l-.169.12.072.2-.169-.12-.169.12.06-.2-.157-.12h.2Z" transform="translate(13.787 16.2)" fill="#fff"/>
    <path id="Path_881" data-name="Path 881" d="M9.765,4.6l.072.217h.229l-.181.133.06.217-.181-.133-.193.133.072-.217-.181-.133h.229Z" transform="translate(11.612 17.849)" fill="#fff"/>
    <path id="Path_882" data-name="Path 882" d="M9.505,4.513l.072.229h.241l-.193.145.072.229L9.505,4.97l-.193.145.072-.229-.193-.145h.241Z" transform="translate(8.611 16.877)" fill="#fff"/>
    <path id="Path_883" data-name="Path 883" d="M9.29,4.652l.084.253h.265l-.217.157.084.253L9.29,5.158l-.217.157.084-.253L8.941,4.9h.265Z" transform="translate(5.838 18.416)" fill="#fff"/>
    <path id="Path_884" data-name="Path 884" d="M9.169,4.719l.072.229h.241l-.193.145.072.229-.193-.145-.193.145.072-.229-.193-.145H9.1Z" transform="translate(4.895 19.155)" fill="#fff"/>
    <path id="Path_885" data-name="Path 885" d="M9.512,4.861l.084.253H9.85l-.2.145.084.253-.217-.157L9.3,5.511l.084-.253-.2-.145h.253Z" transform="translate(8.426 20.724)" fill="#fff"/>
    <path id="Path_886" data-name="Path 886" d="M9.33,4.8l.06.181h.193l-.157.12.06.181L9.33,5.177l-.157.108.06-.181-.157-.12h.193Z" transform="translate(7.338 20.087)" fill="#fff"/>
    <path id="Path_887" data-name="Path 887" d="M9.372,4.729l.072.217h.217l-.181.12.072.2-.181-.12-.181.12.072-.2-.169-.12h.2Z" transform="translate(7.54 19.269)" fill="#fff"/>
    <path id="Path_888" data-name="Path 888" d="M9.228,4.622l.048.145h.157l-.133.1.048.145-.12-.1-.12.1.048-.145-.133-.1h.157Z" transform="translate(6.744 18.082)" fill="#fff"/>
    <path id="Path_889" data-name="Path 889" d="M9.26,4.348l.1.277h.289L9.4,4.806l.1.277L9.26,4.914l-.241.169.1-.277-.241-.181h.289Z" transform="translate(5.104 15.06)" fill="#fff"/>
    <path id="Path_890" data-name="Path 890" d="M9.848,4.665l.072.217h.229l-.181.133.072.217L9.848,5.1l-.181.133.06-.217-.181-.133h.229Z" transform="translate(12.528 18.566)" fill="#fff"/>
    <path id="Path_891" data-name="Path 891" d="M9.81,4.8l.084.253h.265L9.942,5.2l.084.265L9.81,5.3l-.217.169L9.677,5.2,9.46,5.056h.265Z" transform="translate(11.577 20.082)" fill="#fff"/>
    <path id="Path_892" data-name="Path 892" d="M10,4.964l.072.241h.253l-.2.145.084.241L10,5.446l-.2.145.072-.241L9.676,5.2h.241Z" transform="translate(13.96 21.864)" fill="#fff"/>
    <path id="Path_893" data-name="Path 893" d="M10.286,4.734l.084.241h.241l-.193.145.072.241-.2-.145-.2.145.084-.241-.2-.145h.253Z" transform="translate(17.105 19.321)" fill="#fff"/>
    <path id="Path_894" data-name="Path 894" d="M10.283,4.8l.072.2h.217l-.181.133.072.2-.181-.12-.181.12.072-.2L9.994,5h.217Z" transform="translate(17.473 20.052)" fill="#fff"/>
    <path id="Path_895" data-name="Path 895" d="M10.331,4.745l.06.193h.2l-.169.108.072.193-.169-.12-.169.12.072-.193-.169-.108h.2Z" transform="translate(18.27 19.449)" fill="#fff"/>
    <path id="Path_896" data-name="Path 896" d="M10.239,4.857l.072.2h.217l-.181.133.072.2-.181-.12-.181.12.072-.2L9.95,5.062h.217Z" transform="translate(16.989 20.686)" fill="#fff"/>
    <path id="Path_897" data-name="Path 897" d="M10.134,4.948l.072.229h.241l-.193.133.072.229-.193-.145-.193.145.072-.229L9.82,5.177h.241Z" transform="translate(15.556 21.683)" fill="#fff"/>
    <path id="Path_898" data-name="Path 898" d="M10.006,4.905l.06.193h.193l-.157.108.06.193-.157-.12-.169.12.072-.193L9.741,5.1h.2Z" transform="translate(14.676 21.217)" fill="#fff"/>
    <path id="Path_899" data-name="Path 899" d="M10.052,4.883l.06.169h.169l-.133.1.048.169-.145-.1-.145.1.06-.169-.145-.1H10Z" transform="translate(15.589 20.971)" fill="#fff"/>
    <path id="Path_900" data-name="Path 900" d="M10.127,4.9l.06.169h.169l-.133.108.048.169-.145-.108-.145.108.06-.169L9.9,5.066h.181Z" transform="translate(16.411 21.125)" fill="#fff"/>
    <path id="Path_901" data-name="Path 901" d="M10.054,5.027l.06.169H10.3l-.145.108.048.169-.145-.108-.145.108L9.97,5.3,9.826,5.2h.181Z" transform="translate(15.611 22.555)" fill="#fff"/>
    <path id="Path_902" data-name="Path 902" d="M9.888,4.888l.06.193h.193l-.157.108.06.193-.157-.108-.169.108.072-.193-.169-.108h.2Z" transform="translate(13.378 21.024)" fill="#fff"/>
    <path id="Path_903" data-name="Path 903" d="M9.611,5.059l.024.1h.108l-.084.06.036.1-.084-.06-.084.06.036-.1-.084-.06h.1Z" transform="translate(11.775 22.915)" fill="#fff"/>
    <path id="Path_904" data-name="Path 904" d="M9.659,4.667l.06.193h.2l-.169.12.072.193-.169-.12-.169.12.072-.193-.169-.12h.2Z" transform="translate(10.841 18.587)" fill="#fff"/>
    <path id="Path_905" data-name="Path 905" d="M9.629,4.723l.048.145h.145l-.12.084L9.75,5.1,9.629,5l-.12.1.048-.145-.12-.084h.145Z" transform="translate(11.316 19.203)" fill="#fff"/>
  </g>
</svg>
