<svg xmlns="http://www.w3.org/2000/svg" xmlns:xlink="http://www.w3.org/1999/xlink" width="118.107" height="21.168" viewBox="0 0 118.107 21.168">
  <defs>
    <clipPath id="clip-path">
      <rect id="Rectangle_400" data-name="Rectangle 400" width="118.107" height="21.168" fill="none"/>
    </clipPath>
  </defs>
  <g id="Group_440" data-name="Group 440" transform="translate(0 0)">
    <g id="Group_439" data-name="Group 439" transform="translate(0 0)" clip-path="url(#clip-path)">
      <path id="Path_324" data-name="Path 324" d="M238.638,13.374a2.476,2.476,0,0,0-.044-.709c-.036-.111.027-.233-.034-.351-.053-.1.019-.236-.066-.336a4.115,4.115,0,0,0-.195-.842,6.143,6.143,0,0,0-.328-.908,7.676,7.676,0,0,0-.6-1.112,6.666,6.666,0,0,0-.758-.972,7.613,7.613,0,0,0-.92-.825,8.367,8.367,0,0,0-.88-.572,5.318,5.318,0,0,0-.694-.315c-.258-.1-.523-.188-.787-.269-.144-.045-.3-.06-.444-.1s-.317-.038-.472-.089a1.407,1.407,0,0,0-.314-.008,2.854,2.854,0,0,0-.295-.043,4.057,4.057,0,0,0-.929.04,3.384,3.384,0,0,1-.417.044,5.426,5.426,0,0,0-.889.2,5.268,5.268,0,0,0-1.288.584,5.139,5.139,0,0,0-.99.775c-.141.149-.291.292-.462.463V0h-3.4V20.6a.933.933,0,0,1,0,.122c-.01.055.009.11.055.118s.115.017.132,0c.063-.06.106.029.137.011s.069-.045.122-.009c.029.02.1-.023.129,0,.059.045.129-.091.171.019a.278.278,0,0,0,.034-.019c.052-.051.1.025.114.019.049-.027.082-.07.141-.01.014.015.1-.034.11-.02.056.068.151-.085.189.037.04-.122.133.034.191-.036.011-.014.094.037.109.022.059-.058.1-.037.137.014.034-.03.064-.081.118-.029s.126-.086.169.023c.048-.1.123-.007.188-.019.117-.022.244,0,.366-.01.041.067.059-.012.088-.012s.092.036.113.021c.056-.041.081.005.122.015s.077-.073.137-.008c.012.014.076-.027.113-.023.133.014.166,0,.167-.106V18.952c.166.166.31.3.447.448a4.638,4.638,0,0,0,.9.753c.23.145.465.284.7.41.078.04.169.058.248.1a1.722,1.722,0,0,0,.271.1c.085.03.169.064.257.086.278.071.557.144.838.2a2.441,2.441,0,0,1,.321.044,1.755,1.755,0,0,0,.343.047,5.2,5.2,0,0,0,1.071-.04.254.254,0,0,1,.247-.044c.1.014.178-.052.272-.053a.968.968,0,0,0,.25-.038,1.161,1.161,0,0,1,.219-.06.881.881,0,0,0,.247-.048,9.173,9.173,0,0,0,1.03-.385,10.628,10.628,0,0,0,.971-.532,5.907,5.907,0,0,0,.7-.536,6.976,6.976,0,0,0,.9-.934,1.985,1.985,0,0,0,.159-.226,5.228,5.228,0,0,0,.494-.814,2.147,2.147,0,0,0,.37-.744,5.951,5.951,0,0,0,.275-.81c.059-.249.117-.5.178-.75a2.207,2.207,0,0,1,.052-.341,1.18,1.18,0,0,0,.04-.347,3.326,3.326,0,0,0,.047-.344q.01-.364,0-.728m-3.451.411a4.776,4.776,0,0,1-.251,1.349,7.09,7.09,0,0,1-.333.76,3.159,3.159,0,0,1-.288.439,4.059,4.059,0,0,1-1.747,1.337c-.141.051-.277.114-.422.155a1.594,1.594,0,0,1-.377.085c-.1.006-.2.032-.3.047s-.207-.036-.295.049c-.171-.023-.349.044-.518-.04a.259.259,0,0,0-.092-.01.74.74,0,0,1-.288-.008c-.087-.04-.195,0-.244-.047-.082-.073-.2.008-.258-.091a1.629,1.629,0,0,1-.621-.2,2.26,2.26,0,0,1-.553-.3,3.89,3.89,0,0,1-.783-.684,5.585,5.585,0,0,1-.538-.772,5.64,5.64,0,0,1-.374-.912c-.032-.1-.043-.208-.068-.311a2.723,2.723,0,0,0-.085-.377.4.4,0,0,1-.011-.141,2.309,2.309,0,0,1,0-.339.855.855,0,0,0-.029-.269c-.013-.07.056-.1.03-.163a.53.53,0,0,1-.005-.192c0-.064,0-.129,0-.195s-.014-.128.048-.173a2.013,2.013,0,0,1,.091-.495,3.893,3.893,0,0,1,.359-.969,4.681,4.681,0,0,1,.476-.727,2.786,2.786,0,0,1,.438-.469,3.771,3.771,0,0,1,.769-.539,3.817,3.817,0,0,1,.764-.325c.214-.056.426-.11.646-.145a5.531,5.531,0,0,1,.64-.04,4.079,4.079,0,0,1,.409,0,4.226,4.226,0,0,1,1.238.291,5.388,5.388,0,0,1,.481.243c.16.085.3.2.459.3a2.771,2.771,0,0,1,.33.318,4.1,4.1,0,0,1,.857,1.2c.047.092.336.919.346,1a3.35,3.35,0,0,0,.053.488,3,3,0,0,1,.038.879" transform="translate(-166.568 0)" fill="#0e0e0e"/>
      <path id="Path_325" data-name="Path 325" d="M420.716,29.736c-.032-.13.034-.293-.018-.406-.059-.128.023-.273-.085-.378a4.348,4.348,0,0,0-.2-.935,6.546,6.546,0,0,0-.354-.9,4.064,4.064,0,0,0-.222-.418,6.41,6.41,0,0,0-.91-1.248,5.385,5.385,0,0,0-.847-.76,8.227,8.227,0,0,0-.96-.616,7.425,7.425,0,0,0-.882-.392,4.766,4.766,0,0,0-.666-.2,4.526,4.526,0,0,0-.443-.1,1.637,1.637,0,0,1-.439-.056,1.354,1.354,0,0,0-.395-.04,2.211,2.211,0,0,0-.394-.052,5.671,5.671,0,0,0-1,.048,1.719,1.719,0,0,1-.291.006c-.082.007-.163.04-.247.044s-.182.034-.272.047a7.492,7.492,0,0,0-.817.2,5.224,5.224,0,0,0-.949.346c-.246.111-.483.243-.72.377a6.42,6.42,0,0,0-1.049.739,8.122,8.122,0,0,0-.982,1.022c-.062.077-.108.166-.166.247-.132.185-.247.383-.372.572a7.525,7.525,0,0,0-.4.761,4.239,4.239,0,0,0-.2.5c-.064.177-.1.365-.151.546a2.535,2.535,0,0,0-.092.276c-.017.09-.032.184-.043.271a1.353,1.353,0,0,0-.059.27,2.087,2.087,0,0,1-.043.271,7.7,7.7,0,0,0-.055.975.869.869,0,0,1,0,.145,9.858,9.858,0,0,0,.049,1.048.137.137,0,0,0,0,.048,2.027,2.027,0,0,1,.1.542.705.705,0,0,0,.03.085c.047.2.106.393.158.59a5.65,5.65,0,0,0,.3.846,6.162,6.162,0,0,0,.808,1.39c.2.255.391.525.621.761a10.276,10.276,0,0,0,1.006.854,5.711,5.711,0,0,0,.555.357,1.711,1.711,0,0,0,.358.191c.138.043.256.123.388.177s.289.122.439.17a3.431,3.431,0,0,0,.506.181c.182.026.348.111.537.122.128.008.265.064.4.078a1.308,1.308,0,0,0,.417.055c.032-.007.077-.015.095,0,.1.086.215.026.322.047a1.239,1.239,0,0,0,.319.051c.169-.011.34,0,.51,0,.04,0,.1.016.118,0,.092-.092.2-.027.3-.045s.2-.037.295-.048a3.148,3.148,0,0,0,.512-.056c.24-.07.484-.119.725-.18a10.324,10.324,0,0,0,1.16-.425c.229-.11.457-.226.679-.355a7.91,7.91,0,0,0,.932-.673,2.332,2.332,0,0,0,.241-.24,2.41,2.41,0,0,0,.242-.235,1.969,1.969,0,0,1,.237-.243.413.413,0,0,0,.083-.087c.178-.292.4-.553.575-.853a5.7,5.7,0,0,0,.406-.876c.092-.245.169-.5.261-.769-.049-.006-.073-.01-.095-.01h-3.3c-.031,0-.064,0-.1,0a.108.108,0,0,0-.115.1,1.729,1.729,0,0,1-.28.539,2.349,2.349,0,0,1-.5.546,2.853,2.853,0,0,1-.448.321,3.957,3.957,0,0,1-.825.35,8.257,8.257,0,0,1-.919.182,2.336,2.336,0,0,1-.461,0,1.152,1.152,0,0,1-.431-.014c-.144-.063-.3.027-.426-.082a2.141,2.141,0,0,1-.787-.21,3.277,3.277,0,0,1-.849-.47c-.145-.118-.295-.233-.432-.361-.085-.079-.144-.186-.226-.267a2.46,2.46,0,0,1-.444-.643,5.182,5.182,0,0,1-.377-.862,4.189,4.189,0,0,1-.122-.483c-.021-.11-.1-.217-.029-.352h11.241c0-.34.007-.664,0-.986a4.518,4.518,0,0,0-.041-.952m-3.468-.483h-7.372c-.2,0-.188,0-.143-.195a3.643,3.643,0,0,1,.283-.732,2.923,2.923,0,0,1,.391-.639c.143-.17.292-.333.446-.5a3.053,3.053,0,0,1,.672-.485,4.753,4.753,0,0,1,1.046-.4,2.425,2.425,0,0,1,.413-.06c.115-.015.229-.038.344-.047a1.65,1.65,0,0,1,.34,0,7.15,7.15,0,0,1,1.042.176,3.448,3.448,0,0,1,.717.262,2.758,2.758,0,0,1,.714.5,3.614,3.614,0,0,1,.571.661,5.719,5.719,0,0,1,.406.828c.071.185.092.381.144.57,0,.014-.007.029-.014.056" transform="translate(-302.656 -17.317)" fill="#0e0e0e"/>
      <path id="Path_326" data-name="Path 326" d="M301.694,35.12v-.128c0-2.1,0-4.206.005-6.309,0-.336-.067-.665-.053-1,0-.017.007-.038,0-.048-.088-.1-.011-.222-.052-.318a1.381,1.381,0,0,1-.086-.328,3.665,3.665,0,0,0-.236-.753,4.539,4.539,0,0,0-.788-1.274,4.253,4.253,0,0,0-.844-.713,4.649,4.649,0,0,0-1.105-.558,7.309,7.309,0,0,0-1.229-.318,2.067,2.067,0,0,1-.366-.051.893.893,0,0,0-.347-.037c-.119,0-.231-.043-.346-.048-.283-.012-.566-.01-.849,0a7.056,7.056,0,0,0-.853.054,2.356,2.356,0,0,0-.391.048c-.2.068-.418.077-.623.137s-.418.085-.612.164a7.9,7.9,0,0,0-1.068.472,4.979,4.979,0,0,0-.766.543,5.211,5.211,0,0,0-.747.778,5.392,5.392,0,0,0-.536.846c-.06.128-.117.26-.171.391a9.216,9.216,0,0,0-.326,1.054c-.043.149.007.31-.113.454h3.425a1.017,1.017,0,0,1,.129-.533,2.243,2.243,0,0,1,.735-.976,1.782,1.782,0,0,1,.4-.252c.159-.063.322-.123.484-.181s.356-.064.528-.129a1.177,1.177,0,0,1,.313-.008c.1-.008.2-.045.3-.044a1.6,1.6,0,0,1,.468.036c.144.045.307.008.464.053a2.219,2.219,0,0,1,.672.2,1.638,1.638,0,0,1,.824.587.4.4,0,0,1,.117.169,2.3,2.3,0,0,1,.154.716,1.171,1.171,0,0,1-.325.764,1.887,1.887,0,0,1-.82.481,2.4,2.4,0,0,1-.768.2,2.577,2.577,0,0,1-.646.138,3.689,3.689,0,0,1-.609.056c-.017,0-.038-.007-.048,0-.09.071-.2.037-.3.048s-.2.036-.295.047a3.553,3.553,0,0,0-.513.056c-.108.03-.24,0-.314.052-.1.068-.2,0-.292.068a.834.834,0,0,1-.285.067c-.059.014-.117.036-.176.047a1.231,1.231,0,0,0-.177.04c-.256.086-.518.151-.772.248-.223.085-.446.174-.662.277a5.676,5.676,0,0,0-.55.311,6.559,6.559,0,0,0-.713.564,2.515,2.515,0,0,0-.192.233,3.29,3.29,0,0,0-.483.7,2.754,2.754,0,0,0-.289.776,3.128,3.128,0,0,0-.106.784c.011.283.006.566,0,.849a2.789,2.789,0,0,0,.062.439,2.2,2.2,0,0,0,.133.451,3.7,3.7,0,0,0,.168.44,6.241,6.241,0,0,0,.359.6,3.678,3.678,0,0,0,.361.457,3.877,3.877,0,0,0,.391.344,2.7,2.7,0,0,0,.226.156,4.99,4.99,0,0,0,.915.487,6.817,6.817,0,0,0,.95.283,1.318,1.318,0,0,0,.269.056.943.943,0,0,1,.3.04,1.359,1.359,0,0,0,.336.01c.108.008.214.047.321.044a3.566,3.566,0,0,0,.781-.038c.172-.043.357-.011.539-.047s.36-.064.542-.1a3.93,3.93,0,0,0,1.023-.347,3.861,3.861,0,0,0,.67-.368,4.363,4.363,0,0,0,.8-.723,5.53,5.53,0,0,0,.572-.858.649.649,0,0,1,.075-.1.52.52,0,0,1,.064.175,1.457,1.457,0,0,0,.1.423,2.118,2.118,0,0,0,.526.921,2.225,2.225,0,0,0,.937.6,2.26,2.26,0,0,0,.878.167.73.73,0,0,1,.145,0c.041.007.081.034.122.038s.092-.036.1-.027c.049.075.074-.026.112-.012s.073.037.092.026c.037-.022.063-.04.1-.005s.125-.085.167.023c.049-.088.123,0,.166-.019s.077-.017.123.01c.032.018.075-.074.136-.01.012.014.1-.032.108-.022.052.093.115-.047.177.015.04.04.123-.04.182.017.051-.071.092-.025.134.011.043-.053.08-.059.138-.01.021.018.078-.078.132-.008,0,0,.041-.008.041-.014,0-.056,0-.112,0-.17V35.12Zm-3.359-2.607a2.826,2.826,0,0,1-.248.963c-.062.138-.152.259-.211.4a2.283,2.283,0,0,1-.27.376,2.809,2.809,0,0,1-.72.663,3.44,3.44,0,0,1-1.029.506,6.921,6.921,0,0,1-.69.157,4.88,4.88,0,0,1-1.026.032,2.456,2.456,0,0,1-.692-.137,1.987,1.987,0,0,1-.6-.295,1.593,1.593,0,0,1-.6-.834c-.012-.045-.006-.095-.015-.14-.015-.083.041-.178-.037-.251a.391.391,0,0,0,.038-.243,1.165,1.165,0,0,1,.285-.683,2.166,2.166,0,0,1,.7-.544,3.989,3.989,0,0,1,.693-.26,5.435,5.435,0,0,1,.666-.151,6.244,6.244,0,0,1,.736-.1c.088,0,.177-.043.272-.047a.491.491,0,0,0,.275-.037c.073-.043.2.014.285-.012.3-.085.609-.117.906-.213a3.858,3.858,0,0,0,.461-.178,1.845,1.845,0,0,0,.791-.628.371.371,0,0,0,.02-.041l.029.008c0,.565.023,1.131-.01,1.693" transform="translate(-215.347 -17.317)" fill="#0e0e0e"/>
      <path id="Path_327" data-name="Path 327" d="M78.987,29.859c-.022-.105-.018-.213-.043-.321-.066-.289-.111-.58-.193-.867-.059-.2-.119-.4-.194-.6s-.152-.4-.247-.6a8.891,8.891,0,0,0-.629-1.075,8.478,8.478,0,0,0-.7-.872,6.359,6.359,0,0,0-.779-.69,6.844,6.844,0,0,0-.954-.629,5.533,5.533,0,0,0-1.019-.468c-.122-.038-.24-.088-.363-.118s-.24-.086-.372-.107a3.357,3.357,0,0,1-.371-.093c-.125-.033-.252-.043-.377-.085s-.265.011-.389-.056c-.326.018-.647-.08-.975-.051-.144.012-.291,0-.438,0-.04,0-.092-.017-.119,0-.1.073-.214.034-.321.047s-.229.033-.344.048a1.709,1.709,0,0,0-.414.056c-.137.053-.28.063-.415.108s-.292.078-.433.129a6.7,6.7,0,0,0-1.747.82,6.01,6.01,0,0,0-.994.766c-.043.044-.1.071-.147.111a.536.536,0,0,0-.154.149,1.356,1.356,0,0,1-.244.287c-.086.1-.173.2-.258.306a3.178,3.178,0,0,0-.251.308,7.431,7.431,0,0,0-.727,1.3,4.3,4.3,0,0,0-.344,1.023,2.965,2.965,0,0,0-.232.969,2.952,2.952,0,0,0-.062.779,3.648,3.648,0,0,1,0,.388c0,.154-.01.308,0,.461a1.56,1.56,0,0,0,.036.469,1.758,1.758,0,0,1,.049.439c.027.277.117.539.163.81a3.074,3.074,0,0,0,.14.426c.049.148.13.287.171.438a2.253,2.253,0,0,0,.178.411c.115.236.244.466.378.693.1.166.222.314.331.472a6.582,6.582,0,0,0,.544.669,4.571,4.571,0,0,0,.555.524c.165.13.329.262.5.388a8.713,8.713,0,0,0,.989.6c.132.074.283.107.413.176a3.487,3.487,0,0,0,.586.228,2.659,2.659,0,0,0,.816.2c.058.1.173.023.258.089.067.052.189,0,.292.048.077.04.191.008.288.008.023,0,.055-.01.071,0,.115.082.255.011.368.053a1.143,1.143,0,0,0,.4.041c.17,0,.339,0,.509,0,.14-.117.319,0,.474-.09.095-.055.229.023.347-.038.1-.053.236.018.336-.066.258,0,.485-.143.742-.145.089-.081.21-.077.315-.118s.225-.081.336-.125.207-.085.308-.133a6.769,6.769,0,0,0,1.277-.732,5.8,5.8,0,0,0,.707-.572c.04-.04.076-.1.123-.112a.446.446,0,0,0,.229-.2,1.842,1.842,0,0,1,.263-.3,4.8,4.8,0,0,0,.45-.59c.129-.179.24-.37.362-.553a6.206,6.206,0,0,0,.455-.93,4.968,4.968,0,0,0,.273-.832,2.707,2.707,0,0,0,.125-.532c0-.051.038-.1.044-.151s-.021-.143.007-.191c.074-.13,0-.277.052-.392a.886.886,0,0,0,.037-.42,7.831,7.831,0,0,0-.043-1.388m-3.4,1.443c0,.1.027.228-.019.306-.058.095.03.215-.077.285a1.2,1.2,0,0,1-.1.469,2.762,2.762,0,0,1-.149.4c-.079.145-.141.3-.228.442s-.159.274-.255.4a3.455,3.455,0,0,1-.7.751c-.143.1-.278.223-.429.319a3.8,3.8,0,0,1-.6.3,2.983,2.983,0,0,1-.9.24c-.088.082-.2.04-.295.048a2.221,2.221,0,0,1-.539.048,10.559,10.559,0,0,1-1.067-.174,5.5,5.5,0,0,1-.939-.374,3.441,3.441,0,0,1-.421-.271,3.312,3.312,0,0,1-.529-.48,4.035,4.035,0,0,1-.786-1.179,3.774,3.774,0,0,1-.273-.858,3.04,3.04,0,0,1-.092-.664c0-.111-.063-.2-.055-.321.018-.219.018-.439.045-.659s.062-.41.1-.616a4.162,4.162,0,0,1,.376-1.106,6.468,6.468,0,0,1,.457-.71,3.44,3.44,0,0,1,.508-.538,3.785,3.785,0,0,1,1.165-.7,4.612,4.612,0,0,1,.65-.192c.148-.032.3-.051.448-.081a2.378,2.378,0,0,1,.484-.008c.073,0,.145,0,.218,0a1.116,1.116,0,0,1,.354.027c.111.043.241-.034.334.069a2.827,2.827,0,0,1,1.046.345,3.385,3.385,0,0,1,.883.624,4.762,4.762,0,0,1,.638.731,4.946,4.946,0,0,1,.59,1.235,1.839,1.839,0,0,1,.108.588c.1.176-.01.389.1.566-.027.2.053.413-.047.612-.017.033,0,.079,0,.121" transform="translate(-47.507 -17.31)" fill="#0e0e0e"/>
      <path id="Path_328" data-name="Path 328" d="M173.795,38.182c-.055-.007-.118-.031-.13-.015-.056.074-.073-.036-.115-.017s-.081.055-.131,0c-.034-.035-.079.09-.134,0-.007-.011-.1.036-.109.022-.06-.064-.122.02-.134.009a.091.091,0,0,0-.143,0c-.017.013-.074-.073-.132-.008-.037.041-.08-.081-.133-.01s-.074-.053-.112-.018-.122,0-.126,0c-.064.083-.14-.044-.2.016s-.126-.086-.169.023c-.043-.023-.077-.078-.136-.013-.035.038-.079-.08-.133-.01s-.075-.055-.112-.019-.089.02-.131,0-.057.089-.116.018c-.016-.02-.1.023-.127,0-.058-.038-.082.011-.121.016s-.076-.071-.136-.007c-.033.036-.078-.079-.133-.009s-.076-.057-.112-.019c-.05.054-.088.011-.132,0-.012,0-.029.007-.041.015a.185.185,0,0,1-.153,0c-.065-.016-.05-.089-.049-.145,0-.04,0-.081,0-.121q0-4.259,0-8.519a3.315,3.315,0,0,0-.123-.7,3.046,3.046,0,0,0-.33-.809,2.543,2.543,0,0,0-.744-.857,2.613,2.613,0,0,0-.542-.337,3.839,3.839,0,0,0-.8-.238,5.535,5.535,0,0,0-1.025-.031,2.675,2.675,0,0,0-.607.108,3.041,3.041,0,0,0-.687.274,2.278,2.278,0,0,0-.566.4.457.457,0,0,1-.182.146c-.053.018-.074.114-.124.16a2.7,2.7,0,0,0-.434.6,3.554,3.554,0,0,0-.377.91,4.329,4.329,0,0,0-.117.684c-.079.682-.025,1.363-.037,2.044s0,1.391,0,2.087v4.126c0,.065,0,.13,0,.194-.005.118-.049.015-.077.015s-.1.034-.112.019c-.06-.064-.1.036-.136.011s-.073-.042-.123,0c-.02.015-.1-.033-.11-.022-.055.085-.092-.033-.136-.007s-.065.066-.11,0c-.009-.013-.089.036-.11.021-.052-.039-.078-.02-.123.009-.023.015-.1-.035-.11-.021-.059.067-.149-.087-.19.033-.043-.107-.12.014-.167-.025s-.087.019-.118.016-.079-.072-.139-.007c-.013.014-.1-.034-.109-.022-.056.085-.092-.041-.136-.008s-.065.061-.11,0c-.01-.013-.1.036-.109.022-.06-.064-.1.026-.136.01s-.067-.043-.122-.01-.118-.072-.166.021c-.042-.108-.124.022-.167-.025-.059-.065-.1.042-.134.011s-.074-.035-.121,0-.074-.073-.136-.012a.154.154,0,0,1-.133.009c-.058-.022-.065-.083-.059-.143a.952.952,0,0,0,0-.1V23.546h3.395V25.41c.091-.11.165-.185.222-.27a4.234,4.234,0,0,1,.745-.779,3.738,3.738,0,0,1,.985-.6c.17-.076.354-.122.527-.193s.344-.107.514-.164a2.561,2.561,0,0,1,.415-.055,1.319,1.319,0,0,1,.32-.05.476.476,0,0,0,.32-.046h.947a.937.937,0,0,0,.417.05,1.5,1.5,0,0,1,.319.05c.154.049.316.058.468.1s.305.081.452.139.274.12.41.183a3.208,3.208,0,0,1,.423.207c.2.135.413.265.605.421a4.412,4.412,0,0,1,1.108,1.312c.086.151.175.3.257.452.153.285.218.605.361.894-.011.189.112.353.1.542.107.2.061.437.145.644a.063.063,0,0,1,0,.024c-.011.27.054.534.053.805q-.01,4.441,0,8.882Z" transform="translate(-119.495 -17.331)" fill="#0e0e0e"/>
      <path id="Path_329" data-name="Path 329" d="M362.231,27.889h-3.309c-.022-.085-.045-.18-.07-.274a1.438,1.438,0,0,0-.231-.462,2.288,2.288,0,0,0-.831-.722,4.617,4.617,0,0,0-.909-.325,2.5,2.5,0,0,0-.561-.052c-.234-.008-.469-.008-.7,0a2.52,2.52,0,0,0-.585.054,3.751,3.751,0,0,0-.73.229,3.09,3.09,0,0,0-.451.254,1.06,1.06,0,0,0-.425.667,1.4,1.4,0,0,0,0,.736.508.508,0,0,0,.1.2,1.956,1.956,0,0,0,.48.454,4.656,4.656,0,0,0,.966.361c.124.039.263.026.391.055s.25.026.367.054.255.009.367.048.21.009.3.047a1.1,1.1,0,0,0,.3.044c.237.042.473.075.711.1a2.221,2.221,0,0,1,.32.045c.1.028.2.025.3.047.384.087.77.157,1.151.264a8.442,8.442,0,0,1,1.369.564,2.746,2.746,0,0,1,.513.35c.162.13.31.272.457.416a4.258,4.258,0,0,1,.469.63,4.732,4.732,0,0,1,.422.991,1.8,1.8,0,0,1,.051.293,2.47,2.47,0,0,1,.06.706c-.009.137,0,.275,0,.413a1.017,1.017,0,0,1-.007.313c-.034.1-.01.212-.05.294s0,.207-.089.279a1.858,1.858,0,0,1-.209.641,3.889,3.889,0,0,1-.648,1,4.89,4.89,0,0,1-1.893,1.287,6.088,6.088,0,0,1-.991.309,5.156,5.156,0,0,0-.576.127,1.894,1.894,0,0,1-.56.053,1.794,1.794,0,0,0-.32.052c-.106.02-.221-.036-.322.046-.024.02-.078,0-.119,0-.194,0-.389.006-.583,0a4.114,4.114,0,0,1-.706-.056,3.731,3.731,0,0,0-.443-.041c-.075-.007-.148-.032-.223-.047s-.135.016-.2-.041c-.038-.032-.125,0-.188-.01a1.647,1.647,0,0,1-.174-.047,6.649,6.649,0,0,1-1.081-.321c-.232-.1-.473-.185-.7-.307a5.387,5.387,0,0,1-.788-.5,3.731,3.731,0,0,1-.573-.485,5.039,5.039,0,0,1-.654-.868c-.069-.132-.15-.262-.222-.394a5.8,5.8,0,0,1-.4-1.1,2.957,2.957,0,0,1-.054-.415c-.012-.082-.04-.162-.065-.263.071,0,.124-.008.177-.008,1.02,0,2.039,0,3.058,0,.1,0,.116.026.144.122a2.576,2.576,0,0,0,.095.348c.046.1.1.2.154.3a1.929,1.929,0,0,0,.708.733,2.81,2.81,0,0,0,.54.278c.171.058.343.114.516.158a6,6,0,0,0,.782.112,6.4,6.4,0,0,0,.734.035c.114,0,.229-.036.344-.044a2.017,2.017,0,0,0,.338-.007c.156-.039.312-.067.47-.1a2.241,2.241,0,0,0,.449-.144,2.3,2.3,0,0,0,.357-.193,1.542,1.542,0,0,0,.47-.446,1.063,1.063,0,0,0,.142-.33.921.921,0,0,0,.057-.22,2.011,2.011,0,0,0,0-.291,1.514,1.514,0,0,0-.27-.714,1.766,1.766,0,0,0-.882-.564,4.351,4.351,0,0,0-.712-.163c-.247-.045-.5-.062-.745-.126a2.056,2.056,0,0,0-.414-.053,6.746,6.746,0,0,0-.809-.1c-.1-.075-.219-.02-.318-.054s-.219-.02-.321-.047c-.214-.057-.434-.071-.649-.128-.16-.042-.326-.075-.49-.109a5.732,5.732,0,0,1-.707-.227,5.835,5.835,0,0,1-.773-.359,3.088,3.088,0,0,1-.683-.463c-.1-.1-.228-.173-.32-.277a3.814,3.814,0,0,1-.8-1.343c-.073-.223-.093-.458-.186-.674a.064.064,0,0,1,0-.024,7.827,7.827,0,0,1-.046-1.023,4.471,4.471,0,0,1,.194-.987,4.4,4.4,0,0,1,.635-1.17,4.451,4.451,0,0,1,.576-.606,4.751,4.751,0,0,1,1.19-.756,6,6,0,0,1,1.146-.4,3.787,3.787,0,0,1,.718-.141c.117-.091.264-.011.385-.066s.27,0,.4-.033a6.093,6.093,0,0,1,1.145-.046,6.639,6.639,0,0,1,.683.059,3.6,3.6,0,0,1,.639.092,9.2,9.2,0,0,1,1.064.3,5.394,5.394,0,0,1,.818.37,7.929,7.929,0,0,1,.706.466,3.756,3.756,0,0,1,.576.537,4.584,4.584,0,0,1,.607.839,6.8,6.8,0,0,1,.493,1.179,1.157,1.157,0,0,1,.063.288c.009.132.082.254.055.393-.006.033.033.075.059.128" transform="translate(-260.671 -17.319)" fill="#0e0e0e"/>
      <path id="Path_330" data-name="Path 330" d="M13.176,29.083H11.525c-.146,0-.138,0-.2-.159a4.566,4.566,0,0,0-.588-1.044,4.483,4.483,0,0,0-.644-.674,3.378,3.378,0,0,0-.786-.5,4.442,4.442,0,0,0-.771-.249,4.63,4.63,0,0,0-1.393-.084,2.158,2.158,0,0,0-.589.094,3.463,3.463,0,0,0-.533.177c-.173.09-.357.159-.524.257a3.883,3.883,0,0,0-.991.827,4.13,4.13,0,0,0-.637,1.021,4.947,4.947,0,0,0-.262.789c-.045.179-.063.364-.106.54a3.5,3.5,0,0,0-.038.662c-.008.129,0,.259,0,.388a3.852,3.852,0,0,0,.091.713,4.4,4.4,0,0,0,.542,1.452,2.87,2.87,0,0,0,.422.6,3.931,3.931,0,0,0,.877.746,7.009,7.009,0,0,0,.826.412c.117.049.253.053.37.1s.262.015.374.093c.256-.036.5.073.756.047s.51-.049.76-.1a2.976,2.976,0,0,0,.691-.2,3.659,3.659,0,0,0,.914-.554c.116-.105.245-.2.352-.315a4.986,4.986,0,0,0,.836-1.28,1.64,1.64,0,0,0,.054-.171c.055-.165.076-.177.261-.152.037,0,.093-.037.114-.022.047.033.073.041.123,0,.021-.015.1.033.11.021.054-.085.092.034.135.007s.065-.066.11,0c.009.013.089-.036.11-.021.052.038.078.02.123-.009.024-.015.1.035.11.021.059-.067.149.087.19-.033.043.107.12-.014.167.024s.087-.018.118-.016.079.072.139.008c.013-.015.1.033.109.022.056-.085.092.04.136.008s.065-.061.11,0c.01.013.1-.036.109-.022.06.063.1-.026.136-.01s.067.043.122.01.119.073.166-.021c.043.108.119-.018.168.024s.1-.025.115-.019c.049.019.081.071.141.008.014-.015.1.033.109.022.057-.085.1.052.134.008.052-.067.09.007.132,0s.116-.083.1.047a2.623,2.623,0,0,1-.052.343c-.058.194-.106.392-.171.584a7.987,7.987,0,0,1-.478,1.112,8.2,8.2,0,0,1-.612.962,7.526,7.526,0,0,1-.972,1.049,5.362,5.362,0,0,1-.812.612,5.309,5.309,0,0,1-.891.485,4.946,4.946,0,0,1-1.124.391c-.125.105-.288.089-.433.123s-.3.054-.456.08a3.864,3.864,0,0,0-.392.046c-.125.036-.253.013-.369.047a3.1,3.1,0,0,1-.782.04,1.469,1.469,0,0,1-.3-.046c-.1-.017-.209.046-.3-.047-.011-.012-.048-.006-.071,0a1.4,1.4,0,0,1-.441-.052c-.143-.01-.284-.069-.422-.085a3.855,3.855,0,0,1-.552-.14,3.018,3.018,0,0,1-.539-.164,11.426,11.426,0,0,1-1.478-.772,8.266,8.266,0,0,1-1.457-1.279,6.843,6.843,0,0,1-.695-.948,6.223,6.223,0,0,1-.5-.98A5.341,5.341,0,0,1,.3,32.928a1.712,1.712,0,0,0-.132-.478c-.044-.083-.006-.191-.044-.3a2,2,0,0,1-.058-.486c-.017-.171-.039-.342-.047-.514s0-.34,0-.51c0-.105-.034-.228.008-.311a.774.774,0,0,0,.039-.324,1.31,1.31,0,0,1,.043-.3,3.392,3.392,0,0,0,.058-.438c.031-.163.081-.322.12-.484a6.214,6.214,0,0,1,.268-.836A5.958,5.958,0,0,1,1,27c.151-.246.311-.486.472-.726a2.9,2.9,0,0,1,.185-.263,8.758,8.758,0,0,1,.842-.888,7.7,7.7,0,0,1,1-.747,5.94,5.94,0,0,1,.648-.368,9.155,9.155,0,0,1,1.146-.453c.1-.031.2-.058.306-.082a2.125,2.125,0,0,1,.311-.067c.109-.008.205-.086.319-.052.114-.1.262-.011.384-.068s.273,0,.4-.032a4.275,4.275,0,0,1,.927-.044.612.612,0,0,1,.287.007.693.693,0,0,0,.3.04A1.175,1.175,0,0,1,8.8,23.3a2.434,2.434,0,0,0,.367.047c.183.026.354.094.538.118a3.369,3.369,0,0,1,.5.142,3.7,3.7,0,0,1,.442.163,7.9,7.9,0,0,1,.793.368,8.616,8.616,0,0,1,.936.619,6.241,6.241,0,0,1,.809.73c.187.206.354.432.529.65a7.1,7.1,0,0,1,.569.909,8.361,8.361,0,0,1,.348.8,4.089,4.089,0,0,1,.206.643c.026.1.061.2.082.305a.422.422,0,0,0,.046.177c.042.063,0,.111-.089.111h-1.7" transform="translate(0 -17.292)" fill="#0e0e0e"/>
      <path id="Path_331" data-name="Path 331" d="M127.682,27.364V24.38c.208-.04,4.621-.055,5.535-.018V38.721c0,.032,0,.065,0,.1,0,.152-.035.174-.215.154-.038,0-.1.037-.113.023-.06-.064-.1.017-.136.008s-.066-.055-.122-.015c-.022.015-.075-.02-.113-.02s-.046.079-.087.012a2.176,2.176,0,0,1-.369,0c-.048.078-.07-.041-.111-.015s-.083.045-.131,0-.06.078-.113.019-.082,0-.116.028c-.041-.051-.079-.07-.138-.013-.016.015-.1-.035-.11-.022-.058.069-.15-.087-.19.034-.039-.121-.133.032-.19-.037-.011-.013-.089.036-.11.021-.048-.035-.074-.04-.123,0-.02.015-.1-.033-.11-.021-.055.085-.092-.036-.136-.007s-.065.064-.11,0c-.009-.013-.089.037-.11.021-.053-.039-.078-.018-.123.01-.024.015-.1-.034-.111-.021-.056.067-.13-.085-.173.02-.013-.009-.037-.018-.037-.027,0-.073,0-.146,0-.218V27.664c0-.04,0-.081,0-.121,0-.163-.016-.178-.179-.179q-.91,0-1.821,0Z" transform="translate(-95.184 -18.146)" fill="#0e0e0e"/>
      <path id="Path_332" data-name="Path 332" d="M136.3.721a1.776,1.776,0,0,1,.641.044,1.517,1.517,0,0,1,.31.129,1.89,1.89,0,0,1,.91.8,2.026,2.026,0,0,1,.291.9c0,.032-.008.071.007.093a.254.254,0,0,1,0,.284c-.031.066,0,.158-.013.237a1.981,1.981,0,0,1-.047.223,2.087,2.087,0,0,1-.32.693,1.689,1.689,0,0,1-.482.473,2.614,2.614,0,0,1-.651.3,2.213,2.213,0,0,1-.909.079,1.988,1.988,0,0,1-1.177-.494c-.044-.041-.106-.063-.149-.106s-.066-.1-.105-.149a1.929,1.929,0,0,1-.433-.889c-.012-.058-.052-.105-.05-.175a4.262,4.262,0,0,1,.012-.7,2.324,2.324,0,0,1,.4-.928,2.043,2.043,0,0,1,.822-.654A1.6,1.6,0,0,1,136.3.721" transform="translate(-99.979 -0.523)" fill="#0e0e0e"/>
    </g>
  </g>
</svg>
