<svg id="Group_408" data-name="Group 408" xmlns="http://www.w3.org/2000/svg" xmlns:xlink="http://www.w3.org/1999/xlink" width="121.727" height="50.866" viewBox="0 0 121.727 50.866">
  <defs>
    <clipPath id="clip-path">
      <rect id="Rectangle_367" data-name="Rectangle 367" width="121.727" height="50.866" fill="none"/>
    </clipPath>
    <clipPath id="clip-path-2">
      <path id="Path_267" data-name="Path 267" d="M699.412,108.52v.032l.026-.032Z" transform="translate(-699.412 -108.52)" fill="none"/>
    </clipPath>
    <linearGradient id="linear-gradient" x1="-2767.751" y1="852.902" x2="-2763.793" y2="852.902" gradientUnits="objectBoundingBox">
      <stop offset="0" stop-color="#f2295e"/>
      <stop offset="0.996" stop-color="#f1294f"/>
      <stop offset="1" stop-color="#f1294f"/>
    </linearGradient>
    <clipPath id="clip-path-3">
      <path id="Path_268" data-name="Path 268" d="M624.581,19.736,621.1,16.21H632.34V27.6l-3.226-3.269a13.659,13.659,0,0,1-20.21.988l4.5-4.562a7.342,7.342,0,0,0,11.175-1.019M622.9,11.1a6.175,6.175,0,0,1,1.671,3.727h-5.35Zm-8.75.07a5.957,5.957,0,0,1,3.767-1.916v5.574h-.157ZM617.915,1.4V7.859a7.408,7.408,0,0,0-5.6,3.426l3.694,3.744H604.775V3.641l2.987,3.028A13.7,13.7,0,0,1,617.915,1.4m1.386-.015h11.237l-3.178,3.22a14,14,0,0,1,4.97,10.219h-6.37A7.544,7.544,0,0,0,622.823,9.2L619.3,12.774ZM618.558,0c-.216,0-.429,0-.643.014A14.987,14.987,0,0,0,607.7,4.632L603.391.266V15.029l0,1.386h15.869L622.7,19.8a5.944,5.944,0,0,1-8.328-.038l-.985-.965-6.441,6.525.979.974a15.036,15.036,0,0,0,21.223.039l4.574,4.635V15.351c0-.175,0-.351-.009-.526a15.389,15.389,0,0,0-4.367-10.261L633.85,0Z" transform="translate(-603.391)" fill="none"/>
    </clipPath>
    <linearGradient id="linear-gradient-2" x1="-1.955" y1="1.316" x2="-1.951" y2="1.316" xlink:href="#linear-gradient"/>
  </defs>
  <g id="Group_401" data-name="Group 401">
    <g id="Group_400" data-name="Group 400" clip-path="url(#clip-path)">
      <path id="Path_258" data-name="Path 258" d="M457.809,129.071a11.042,11.042,0,0,0-4.412-4.136,12.608,12.608,0,0,0-6.114-1.474,13.232,13.232,0,0,0-4.2.654,12.789,12.789,0,0,1,3.338,4.013c0,.009.009.013.009.022a7.669,7.669,0,0,1,.851-.044,7.31,7.31,0,0,1,3.632.9,6.825,6.825,0,0,1,3.447,5.768,7.342,7.342,0,0,1-.873,3.61,6.306,6.306,0,0,1-2.531,2.509,7.26,7.26,0,0,1-3.676.921,7.132,7.132,0,0,1-.873-.048l-.026.053a12.98,12.98,0,0,1-3.3,3.991,13.284,13.284,0,0,0,4.2.645,12.9,12.9,0,0,0,6.136-1.469,11.055,11.055,0,0,0,4.39-4.141,11.6,11.6,0,0,0,1.566-6.07,10.928,10.928,0,0,0-1.566-5.7" transform="translate(-376.06 -104.786)" fill="#f6f6f6"/>
      <path id="Path_259" data-name="Path 259" d="M21.774,89.414a11.718,11.718,0,0,1,1.4,5.61A12.145,12.145,0,0,1,21.751,101a10.683,10.683,0,0,1-9.565,5.7,10.605,10.605,0,0,1-3.932-.735,9.917,9.917,0,0,1-3.288-2.116V106.7H0V76.626H4.967v9.891a10.413,10.413,0,0,1,7.173-2.805,10.782,10.782,0,0,1,5.7,1.563,10.538,10.538,0,0,1,3.932,4.139M17.291,98.68a7.792,7.792,0,0,0,.828-3.656,6.95,6.95,0,0,0-.874-3.357,6.723,6.723,0,0,0-2.368-2.483,6.42,6.42,0,0,0-3.38-.874,6.757,6.757,0,0,0-3.4.92,6.146,6.146,0,0,0-2.368,2.437,6.912,6.912,0,0,0-.851,3.357A8.213,8.213,0,0,0,5.7,98.749a6.264,6.264,0,0,0,2.368,2.484,6.66,6.66,0,0,0,3.426.873,6.357,6.357,0,0,0,5.794-3.426" transform="translate(0 -65.036)" fill="#f6f6f6"/>
      <path id="Path_260" data-name="Path 260" d="M143.749,123.471l7.22,15.267,6.53-15.267h5.519l-13.8,32.19h-5.472l4.506-11.359-10.071-20.831Z" transform="translate(-117.283 -104.795)" fill="#f6f6f6"/>
      <path id="Path_261" data-name="Path 261" d="M330.2,89.414a11.715,11.715,0,0,1,1.4,5.61A12.145,12.145,0,0,1,330.182,101a10.874,10.874,0,0,1-13.5,4.967,9.916,9.916,0,0,1-3.288-2.116V106.7h-4.967V76.626H313.4v9.891a10.413,10.413,0,0,1,7.173-2.805,10.782,10.782,0,0,1,5.7,1.563,10.539,10.539,0,0,1,3.932,4.139m-4.483,9.266a7.792,7.792,0,0,0,.828-3.656,6.948,6.948,0,0,0-.874-3.357,6.718,6.718,0,0,0-2.368-2.483,6.419,6.419,0,0,0-3.38-.874,6.757,6.757,0,0,0-3.4.92,6.145,6.145,0,0,0-2.368,2.437,6.912,6.912,0,0,0-.851,3.357,8.213,8.213,0,0,0,.828,3.725,6.264,6.264,0,0,0,2.368,2.484,6.66,6.66,0,0,0,3.426.873,6.357,6.357,0,0,0,5.794-3.426" transform="translate(-261.778 -65.036)" fill="#f6f6f6"/>
      <path id="Path_262" data-name="Path 262" d="M555.832,76.626h5.012v7.086h4.966v4.277h-4.966v8.277q0,3.357.989,4.644T565.4,102.2a8.947,8.947,0,0,0,1.1-.046v4.507a9.662,9.662,0,0,1-1.1.046q-4.828,0-7.174-2.437t-2.345-7.358V87.988l-.046-4.277Z" transform="translate(-471.758 -65.036)" fill="#f6f6f6"/>
      <path id="Path_263" data-name="Path 263" d="M721.6,22.6h-6.37a7.544,7.544,0,0,0-3.137-5.622l-3.523,3.571V9.16h11.237l-3.178,3.22A14,14,0,0,1,721.6,22.6" transform="translate(-601.394 -7.774)" fill="#fff"/>
      <path id="Path_264" data-name="Path 264" d="M625.681,9.26v6.459a7.407,7.407,0,0,0-5.595,3.426l3.694,3.744H612.541V11.5l2.987,3.028A13.7,13.7,0,0,1,625.681,9.26" transform="translate(-519.889 -7.859)" fill="#fff"/>
      <path id="Path_265" data-name="Path 265" d="M663.277,107.17v11.388l-3.226-3.269a13.659,13.659,0,0,1-20.21.988l4.5-4.562a7.342,7.342,0,0,0,11.175-1.019l-3.479-3.526Z" transform="translate(-543.06 -90.96)" fill="#fff"/>
      <path id="Path_266" data-name="Path 266" d="M727.981,30.374h-3.6a8.957,8.957,0,0,0-3.721-6.749l-.962-.687-1.981,2.009V18.32h6.539l-1.9,1.929,1.147.965a12.617,12.617,0,0,1,4.477,9.16" transform="translate(-609.16 -15.549)" fill="#f2295e"/>
    </g>
  </g>
  <g id="Group_403" data-name="Group 403" transform="translate(105.792 16.415)">
    <g id="Group_402" data-name="Group 402" clip-path="url(#clip-path-2)">
      <rect id="Rectangle_368" data-name="Rectangle 368" width="0.038" height="0.04" transform="translate(-0.014 0.008) rotate(-30.273)" fill="url(#linear-gradient)"/>
    </g>
  </g>
  <g id="Group_405" data-name="Group 405" transform="translate(91.268)">
    <g id="Group_404" data-name="Group 404" clip-path="url(#clip-path-3)">
      <rect id="Rectangle_369" data-name="Rectangle 369" width="43.384" height="43.341" transform="translate(-15.377 17.324) rotate(-48.408)" fill="url(#linear-gradient-2)"/>
    </g>
  </g>
  <g id="Group_407" data-name="Group 407">
    <g id="Group_406" data-name="Group 406" clip-path="url(#clip-path)">
      <path id="Path_269" data-name="Path 269" d="M626.691,26.185l-.593.93,2.142,2.171H621.7V22.659l1.721,1.746.971-1.239a12.279,12.279,0,0,1,9.062-4.736v3.682a8.766,8.766,0,0,0-6.764,4.073" transform="translate(-527.663 -15.642)" fill="#f2295e"/>
      <path id="Path_270" data-name="Path 270" d="M673.157,116.327v6.627L671.227,121l-.977,1.178a12.269,12.269,0,0,1-17.136,1.81l2.585-2.62a8.672,8.672,0,0,0,5.061,1.621,8.8,8.8,0,0,0,7.152-3.718l.674-.947-1.969-2Z" transform="translate(-554.325 -98.732)" fill="#f2295e"/>
    </g>
  </g>
</svg>
