<svg id="Group_438" data-name="Group 438" xmlns="http://www.w3.org/2000/svg" xmlns:xlink="http://www.w3.org/1999/xlink" width="190.073" height="42.981" viewBox="0 0 190.073 42.981">
  <defs>
    <clipPath id="clip-path">
      <rect id="Rectangle_399" data-name="Rectangle 399" width="190.073" height="42.981" fill="none"/>
    </clipPath>
  </defs>
  <path id="Path_315" data-name="Path 315" d="M0,22.474V55.988H33.651v-6.63H29.261v2.4H4.349V26.748H29.617V39.81h4.034V22.474Z" transform="translate(0 -13.008)" fill="#0e0e0e"/>
  <path id="Path_316" data-name="Path 316" d="M20.864,0V6.37h3.774V4.138h25.72V29.3H25.035V15.966H20.864V33.474H54.625V0Z" transform="translate(-12.076)" fill="#0e0e0e"/>
  <g id="Group_437" data-name="Group 437" transform="translate(0 0)">
    <g id="Group_436" data-name="Group 436" transform="translate(0 0)" clip-path="url(#clip-path)">
      <path id="Path_317" data-name="Path 317" d="M141.852,37.887c-.336-2.39-1.911-3.761-4.254-5.082,2.822-2.39,3.987-5.062,2.624-8.309-1.35-3.226-4.336-3.767-7.363-3.918-2.582-.13-5.172-.027-7.9-.027v25.1c2.87,0,5.473.007,8.082-.007a18.462,18.462,0,0,0,2.384-.137c4.487-.651,6.987-3.658,6.432-7.617m-13.87-14.665c2.021,0,4.021-.137,5.993.041A3.816,3.816,0,0,1,137.646,27c.123,2.253-.986,4.11-3.185,4.534a50.64,50.64,0,0,1-6.48.452Zm10.884,15.713a4.157,4.157,0,0,1-4.219,4.048c-2.13.164-4.281.034-6.678.034V34.25a67.073,67.073,0,0,1,6.863.048,4.309,4.309,0,0,1,4.034,4.637" transform="translate(-72.323 -11.873)" fill="#0e0e0e"/>
      <path id="Path_318" data-name="Path 318" d="M180.341,21.043h2.48V45.66c-.747.082-1.473.165-2.48.281Z" transform="translate(-104.38 -12.18)" fill="#0e0e0e"/>
      <path id="Path_319" data-name="Path 319" d="M217.609,21.076c.041.7-.075,1.4,0,2.445H210.8V45.83h-2.842V23.686h-7.206c-.116-.973.117-1.671,0-2.61Z" transform="translate(-116.175 -12.199)" fill="#0e0e0e"/>
      <path id="Path_320" data-name="Path 320" d="M267.617,21.124c.055.678-.082,1.308,0,2.281h-6.8V45.871h-3.24V23.576h-6.822V21.124Z" transform="translate(-145.135 -12.226)" fill="#0e0e0e"/>
      <path id="Path_321" data-name="Path 321" d="M315.833,35.735c.466-.329.733-.527,1.013-.713,3.131-2.013,4.439-4.843,3.761-8.349-.651-3.418-2.528-5.7-5.891-6.113-3.1-.39-6.6-.065-9.877-.216V45.516c1.021-.082,1.747-.144,2.856-.233V36.091h5.178c1.829,3.158,3.631,6.274,5.494,9.494l3.226-.288c-2.055-3.418-3.9-6.48-5.76-9.562m-8.1-2.137V23.056c3.219.029,6.719-1.2,9.116,2.137a5.065,5.065,0,0,1,.007,6.075c-2.315,3.261-5.774,2.205-9.123,2.329" transform="translate(-176.44 -11.775)" fill="#0e0e0e"/>
      <path id="Path_322" data-name="Path 322" d="M374.027,43.277v2.486H359.609V21.092h14.418v2.363h-11.35v8.631H372.89v2.472h-10.2v8.719Z" transform="translate(-208.14 -12.208)" fill="#0e0e0e"/>
      <path id="Path_323" data-name="Path 323" d="M425.4,45.594H421.87c-1.863-3.233-3.774-6.548-5.9-10.254-2.041,3.541-3.938,6.843-5.891,10.24h-3.486c2.562-4.329,4.952-8.377,7.466-12.631-2.418-3.993-4.7-7.747-7.2-11.87l3.206-.411c1.918,3.295,3.781,6.487,5.9,10.124,2-3.473,3.815-6.623,5.692-9.87h3.514c-2.528,4.185-4.843,8.007-7.274,12.028,2.438,4.11,4.9,8.254,7.514,12.644" transform="translate(-235.331 -11.963)" fill="#0e0e0e"/>
    </g>
  </g>
</svg>
