<svg xmlns="http://www.w3.org/2000/svg" width="116" height="116" viewBox="0 0 116 116">
  <g id="Group_376" data-name="Group 376" transform="translate(-872.182 -2607.001)">
    <path id="Path_241" data-name="Path 241" d="M113.495,59.547l-1.319-1.319L58.229,112.177a.323.323,0,0,1-.457,0L3.823,58.229a.324.324,0,0,1,0-.456L57.771,3.824a.323.323,0,0,1,.457,0l53.948,53.948a.323.323,0,0,1,0,.456l1.318,1.319,1.318,1.319a4.051,4.051,0,0,0,0-5.731L60.865,1.187a4.052,4.052,0,0,0-5.73,0L1.187,55.135a4.052,4.052,0,0,0,0,5.73l53.948,53.948a4.052,4.052,0,0,0,5.73,0l53.948-53.948Z" transform="translate(872.182 2607)" fill="#f1294f"/>
    <path id="Path_242" data-name="Path 242" d="M104.722,81.593l-23.13,23.13a6.706,6.706,0,0,1-9.484,0l-23.13-23.13a6.706,6.706,0,0,1,0-9.484l23.13-23.13a6.707,6.707,0,0,1,9.484,0l23.13,23.13a6.706,6.706,0,0,1,0,9.484" transform="translate(853.332 2588.15)" fill="#ffabab"/>
  </g>
</svg>
