<svg xmlns="http://www.w3.org/2000/svg" width="212.783" height="267.679" viewBox="0 0 212.783 267.679">
  <g id="Group_378" data-name="Group 378" transform="translate(-219.217 -1570.321)">
    <path id="Path_246" data-name="Path 246" d="M64.8,233.977l3.313-3.345A93.61,93.61,0,0,1,68.1,97.358l-3.313-3.344-3.313,3.344,141.308,139.98,3.314-3.344-3.314-3.345a95.876,95.876,0,0,1-134.665-.017L64.8,233.977l-3.313,3.344a105.289,105.289,0,0,0,147.917.017l3.377-3.345-148-146.606-3.313,3.282a103.023,103.023,0,0,0,.017,146.652Z" transform="translate(219.218 1570.321)" fill="#ffabab"/>
    <path id="Path_245" data-name="Path 245" d="M141.292,28.994a98.318,98.318,0,0,1,.017,139.963L0,28.977a100.585,100.585,0,0,1,141.293.017" transform="translate(219.218 1570.321)" fill="#f1294f"/>
  </g>
</svg>
