<svg xmlns="http://www.w3.org/2000/svg" width="26" height="26" viewBox="0 0 26 26">
  <path id="Icon_awesome-arrow-alt-circle-down" data-name="Icon awesome-arrow-alt-circle-down" d="M26.562,13.563a13,13,0,1,1-13-13A13,13,0,0,1,26.562,13.563ZM11.256,7.482v6.081H7.54a.63.63,0,0,0-.446,1.075l6.023,5.992a.623.623,0,0,0,.886,0l6.023-5.992a.629.629,0,0,0-.446-1.075H15.869V7.482a.631.631,0,0,0-.629-.629H11.885A.631.631,0,0,0,11.256,7.482Z" transform="translate(-0.563 -0.563)" fill="#f1294f"/>
</svg>
