<svg id="Group_400" data-name="Group 400" xmlns="http://www.w3.org/2000/svg" xmlns:xlink="http://www.w3.org/1999/xlink" width="163.906" height="68.491" viewBox="0 0 163.906 68.491">
  <defs>
    <clipPath id="clip-path">
      <rect id="Rectangle_367" data-name="Rectangle 367" width="163.906" height="68.491" fill="none"/>
    </clipPath>
    <clipPath id="clip-path-2">
      <path id="Path_267" data-name="Path 267" d="M699.412,108.52v.043l.035-.043Z" transform="translate(-699.412 -108.52)" fill="none"/>
    </clipPath>
    <linearGradient id="linear-gradient" x1="-2767.751" y1="852.902" x2="-2763.793" y2="852.902" gradientUnits="objectBoundingBox">
      <stop offset="0" stop-color="#f2295e"/>
      <stop offset="0.996" stop-color="#f1294f"/>
      <stop offset="1" stop-color="#f1294f"/>
    </linearGradient>
    <clipPath id="clip-path-3">
      <path id="Path_268" data-name="Path 268" d="M631.923,26.575l-4.684-4.748h15.133V37.161l-4.344-4.4a18.392,18.392,0,0,1-27.213,1.33l6.061-6.143a9.886,9.886,0,0,0,15.047-1.373m-2.265-11.632a8.315,8.315,0,0,1,2.251,5.018h-7.2Zm-11.783.094a8.021,8.021,0,0,1,5.072-2.58v7.505h-.212Zm5.072-13.151v8.7a9.974,9.974,0,0,0-7.534,4.613l4.973,5.041H605.255V4.9l4.022,4.077a18.448,18.448,0,0,1,13.671-7.094m1.866-.02h15.13L635.665,6.2a18.845,18.845,0,0,1,6.693,13.76h-8.577a10.158,10.158,0,0,0-4.224-7.57L624.813,17.2Zm-1-1.866c-.291,0-.578.006-.865.018a20.18,20.18,0,0,0-13.756,6.218l-5.8-5.878V20.237l0,1.866h21.367l4.631,4.562a8,8,0,0,1-11.214-.051l-1.326-1.3L608.181,34.1l1.318,1.312a20.246,20.246,0,0,0,28.577.053l6.159,6.24V20.67c0-.236,0-.473-.012-.709a20.722,20.722,0,0,0-5.88-13.817L644.4,0Z" transform="translate(-603.391)" fill="none"/>
    </clipPath>
    <linearGradient id="linear-gradient-2" x1="-1.955" y1="1.316" x2="-1.951" y2="1.316" xlink:href="#linear-gradient"/>
  </defs>
  <g id="Group_401" data-name="Group 401">
    <g id="Group_400-2" data-name="Group 400" clip-path="url(#clip-path)">
      <path id="Path_258" data-name="Path 258" d="M462.912,131.015a14.868,14.868,0,0,0-5.941-5.569,16.976,16.976,0,0,0-8.233-1.984,17.817,17.817,0,0,0-5.652.88,17.22,17.22,0,0,1,4.495,5.4c.006.012.012.018.012.03a10.326,10.326,0,0,1,1.146-.059,9.843,9.843,0,0,1,4.89,1.211,9.19,9.19,0,0,1,4.642,7.766,9.886,9.886,0,0,1-1.175,4.861,8.491,8.491,0,0,1-3.408,3.378,9.776,9.776,0,0,1-4.949,1.24,9.6,9.6,0,0,1-1.175-.065l-.035.071a17.478,17.478,0,0,1-4.447,5.374,17.887,17.887,0,0,0,5.658.868A17.37,17.37,0,0,0,457,152.441a14.885,14.885,0,0,0,5.912-5.575,15.614,15.614,0,0,0,2.108-8.174,14.715,14.715,0,0,0-2.108-7.678" transform="translate(-352.838 -98.316)" fill="#f6f6f6"/>
      <path id="Path_259" data-name="Path 259" d="M29.319,93.845a15.778,15.778,0,0,1,1.888,7.554,16.353,16.353,0,0,1-1.92,8.05,14.385,14.385,0,0,1-12.879,7.678,14.28,14.28,0,0,1-5.294-.99,13.353,13.353,0,0,1-4.427-2.849v3.839H0v-40.5H6.688V89.944a14.021,14.021,0,0,1,9.659-3.777,14.518,14.518,0,0,1,7.678,2.105,14.189,14.189,0,0,1,5.294,5.573m-6.037,12.477A10.491,10.491,0,0,0,24.4,101.4a9.358,9.358,0,0,0-1.176-4.52,9.053,9.053,0,0,0-3.189-3.343,8.645,8.645,0,0,0-4.551-1.177A9.1,9.1,0,0,0,10.9,93.6a8.275,8.275,0,0,0-3.189,3.282,9.307,9.307,0,0,0-1.145,4.52,11.059,11.059,0,0,0,1.114,5.015,8.434,8.434,0,0,0,3.189,3.344,8.967,8.967,0,0,0,4.613,1.176,8.559,8.559,0,0,0,7.8-4.613" transform="translate(0 -61.02)" fill="#f6f6f6"/>
      <path id="Path_260" data-name="Path 260" d="M145.677,123.471l9.721,20.557,8.792-20.557h7.431l-18.576,43.343h-7.368l6.068-15.294-13.56-28.049Z" transform="translate(-110.04 -98.324)" fill="#f6f6f6"/>
      <path id="Path_261" data-name="Path 261" d="M337.75,93.845a15.774,15.774,0,0,1,1.889,7.554,16.353,16.353,0,0,1-1.92,8.05,14.642,14.642,0,0,1-18.173,6.688,13.353,13.353,0,0,1-4.427-2.849v3.839h-6.687v-40.5h6.688V89.944a14.021,14.021,0,0,1,9.659-3.777,14.518,14.518,0,0,1,7.678,2.105,14.19,14.19,0,0,1,5.294,5.573m-6.037,12.477a10.491,10.491,0,0,0,1.114-4.923,9.356,9.356,0,0,0-1.177-4.52,9.046,9.046,0,0,0-3.189-3.343,8.643,8.643,0,0,0-4.551-1.177,9.1,9.1,0,0,0-4.582,1.238,8.275,8.275,0,0,0-3.189,3.282,9.307,9.307,0,0,0-1.145,4.52,11.059,11.059,0,0,0,1.114,5.015,8.434,8.434,0,0,0,3.189,3.344,8.967,8.967,0,0,0,4.613,1.176,8.56,8.56,0,0,0,7.8-4.613" transform="translate(-245.613 -61.02)" fill="#f6f6f6"/>
      <path id="Path_262" data-name="Path 262" d="M555.832,76.626h6.749v9.541h6.687v5.758h-6.687v11.146q0,4.52,1.331,6.254t4.8,1.734A12.048,12.048,0,0,0,570.2,111v6.068a13.013,13.013,0,0,1-1.486.062q-6.5,0-9.659-3.282t-3.158-9.907V91.925l-.062-5.758Z" transform="translate(-442.626 -61.02)" fill="#f6f6f6"/>
      <path id="Path_263" data-name="Path 263" d="M726.115,27.256h-8.577a10.158,10.158,0,0,0-4.224-7.57l-4.743,4.809V9.16H723.7L719.422,13.5a18.845,18.845,0,0,1,6.693,13.76" transform="translate(-564.256 -7.294)" fill="#fff"/>
      <path id="Path_264" data-name="Path 264" d="M630.234,9.26v8.7A9.974,9.974,0,0,0,622.7,22.57l4.974,5.041H612.541V12.276l4.022,4.077a18.447,18.447,0,0,1,13.67-7.094" transform="translate(-487.785 -7.374)" fill="#fff"/>
      <path id="Path_265" data-name="Path 265" d="M671.4,107.17V122.5l-4.344-4.4a18.391,18.391,0,0,1-27.212,1.33l6.061-6.143a9.887,9.887,0,0,0,15.047-1.373l-4.684-4.748Z" transform="translate(-509.525 -85.343)" fill="#fff"/>
      <path id="Path_266" data-name="Path 266" d="M731.536,34.55h-4.841a12.061,12.061,0,0,0-5.01-9.088l-1.3-.925-2.668,2.7V18.32h8.8l-2.562,2.6,1.544,1.3a16.988,16.988,0,0,1,6.029,12.334" transform="translate(-571.543 -14.589)" fill="#f2295e"/>
    </g>
  </g>
  <g id="Group_403" data-name="Group 403" transform="translate(142.449 22.102)">
    <g id="Group_402" data-name="Group 402" clip-path="url(#clip-path-2)">
      <rect id="Rectangle_368" data-name="Rectangle 368" width="0.051" height="0.054" transform="translate(-0.019 0.011) rotate(-30.273)" fill="url(#linear-gradient)"/>
    </g>
  </g>
  <g id="Group_405" data-name="Group 405" transform="translate(122.893)">
    <g id="Group_404" data-name="Group 404" clip-path="url(#clip-path-3)">
      <rect id="Rectangle_369" data-name="Rectangle 369" width="58.417" height="58.358" transform="translate(-20.705 23.327) rotate(-48.408)" fill="url(#linear-gradient-2)"/>
    </g>
  </g>
  <g id="Group_407" data-name="Group 407">
    <g id="Group_406" data-name="Group 406" clip-path="url(#clip-path)">
      <path id="Path_269" data-name="Path 269" d="M628.42,28.872l-.8,1.253,2.884,2.923h-8.8V24.125l2.318,2.35,1.308-1.668a16.533,16.533,0,0,1,12.2-6.377v4.957a11.8,11.8,0,0,0-9.108,5.485" transform="translate(-495.079 -14.676)" fill="#f2295e"/>
      <path id="Path_270" data-name="Path 270" d="M680.1,116.327v8.923l-2.6-2.634-1.316,1.587a16.521,16.521,0,0,1-23.073,2.437l3.48-3.528a11.677,11.677,0,0,0,6.814,2.183,11.854,11.854,0,0,0,9.63-5.006l.908-1.276-2.651-2.687Z" transform="translate(-520.094 -92.635)" fill="#f2295e"/>
    </g>
  </g>
</svg>
