<svg id="Group_460" data-name="Group 460" xmlns="http://www.w3.org/2000/svg" width="42.753" height="42.753" viewBox="0 0 42.753 42.753">
  <path id="Path_906" data-name="Path 906" d="M39.6,2.457a21.314,21.314,0,0,1-1.723,3.289H1.871A20.371,20.371,0,0,1,.136,2.457Z" transform="translate(1.502 27.141)" fill="#fff"/>
  <path id="Path_907" data-name="Path 907" d="M41.645,2.184a20.186,20.186,0,0,1-1.072,3.289H1.108A21.386,21.386,0,0,1,.048,2.184Z" transform="translate(0.53 24.125)" fill="#b12233"/>
  <path id="Path_908" data-name="Path 908" d="M42.638,1.911A21.254,21.254,0,0,1,42.12,5.2H.523A21.254,21.254,0,0,1,.005,1.911Z" transform="translate(0.055 21.11)" fill="#fff"/>
  <path id="Path_909" data-name="Path 909" d="M36.287,2.73A21.472,21.472,0,0,1,33.7,6.019H2.87A21.472,21.472,0,0,1,.28,2.73Z" transform="translate(3.093 30.157)" fill="#b12233"/>
  <path id="Path_910" data-name="Path 910" d="M23.6,3.276A21.252,21.252,0,0,1,12.213,6.565,21.252,21.252,0,0,1,.829,3.276Z" transform="translate(9.157 36.188)" fill="#b12233"/>
  <path id="Path_911" data-name="Path 911" d="M31.311,3a21.533,21.533,0,0,1-4.024,3.289H4.52A21.152,21.152,0,0,1,.5,3Z" transform="translate(5.479 33.172)" fill="#fff"/>
  <path id="Path_912" data-name="Path 912" d="M31.311,3.562H.5A21.152,21.152,0,0,1,4.52.273H27.275a21.228,21.228,0,0,1,4.036,3.289" transform="translate(5.479 3.016)" fill="#fff"/>
  <path id="Path_913" data-name="Path 913" d="M23.586,3.289H.83A22.485,22.485,0,0,1,2.938,2.108l.217-.084c.241-.12.494-.229.747-.337l.325-.145A21.461,21.461,0,0,1,12.2,0h.012A21.21,21.21,0,0,1,23.586,3.289" transform="translate(9.169 0)" fill="#b12233"/>
  <path id="Path_914" data-name="Path 914" d="M36.287,3.835H.28c.181-.289.385-.59.59-.867L.918,2.9A21.471,21.471,0,0,1,2.87.546H33.7a22.073,22.073,0,0,1,2.59,3.289" transform="translate(3.093 6.031)" fill="#b12233"/>
  <path id="Path_915" data-name="Path 915" d="M41.645,4.381H.048a21.818,21.818,0,0,1,1.06-3.289H40.572a20.573,20.573,0,0,1,1.072,3.289" transform="translate(0.53 12.063)" fill="#b12233"/>
  <path id="Path_916" data-name="Path 916" d="M39.6,4.108H.136c.084-.217.181-.422.277-.638.229-.494.482-1,.747-1.482.229-.4.458-.783.711-1.169H37.878A21.314,21.314,0,0,1,39.6,4.108" transform="translate(1.502 9.047)" fill="#fff"/>
  <path id="Path_917" data-name="Path 917" d="M42.638,4.654H.005l.036-.41c.036-.4.1-.8.145-1.193.1-.566.2-1.132.337-1.687h41.6a21.027,21.027,0,0,1,.518,3.289" transform="translate(0.055 15.078)" fill="#fff"/>
  <path id="Path_918" data-name="Path 918" d="M42.753,3.277c0,.554-.024,1.108-.06,1.65H.06C.024,4.386,0,3.831,0,3.277s.024-1.1.06-1.638H42.693c.036.542.06,1.084.06,1.638" transform="translate(0 18.105)" fill="#b12233"/>
  <path id="Path_919" data-name="Path 919" d="M21.37,0V23.021H.06C.012,22.479,0,21.937,0,21.382s.012-1.108.06-1.65l.036-.4c.036-.41.084-.807.145-1.2.084-.566.2-1.132.337-1.687a21.818,21.818,0,0,1,1.06-3.289c.1-.2.181-.422.289-.626a15.489,15.489,0,0,1,.747-1.482c.217-.41.446-.8.7-1.181.181-.289.385-.59.59-.867l.048-.072A22.933,22.933,0,0,1,5.963,6.577,21.228,21.228,0,0,1,10,3.289,19.959,19.959,0,0,1,12.107,2.12l.2-.1c.253-.12.494-.229.747-.337l.337-.133A21.184,21.184,0,0,1,21.37,0" transform="translate(0 0)" fill="#3c3b6d"/>
  <path id="Path_920" data-name="Path 920" d="M2.721.091l.3.916H4l-.783.578.3.928-.8-.578-.783.578.3-.928-.8-.578h.976Z" transform="translate(15.947 1.007)" fill="#fff"/>
  <path id="Path_921" data-name="Path 921" d="M2.861,1.875l.072.229L2.62,1.875l-.47-.349-.482.349L1.355,2.1l.072-.229.229-.7L1.006.694l.2-.084h.638L1.958.273,2.295.128,2.452.61h.964l-.783.566Z" transform="translate(11.113 1.414)" fill="#fff"/>
  <path id="Path_922" data-name="Path 922" d="M2.721.473l.3.928H4l-.783.566.3.928-.8-.566-.783.566.3-.928-.8-.566h.976Z" transform="translate(15.947 5.225)" fill="#fff"/>
  <path id="Path_923" data-name="Path 923" d="M2.271.473l.3.928h.976l-.8.566.3.928-.783-.566-.783.566.3-.928L.995,1.4H1.97Z" transform="translate(10.986 5.225)" fill="#fff"/>
  <path id="Path_924" data-name="Path 924" d="M1.822.473l.3.928H3.1l-.8.566.3.928-.783-.566-.8.566.3-.928L.545,1.4h.976Z" transform="translate(6.025 5.225)" fill="#fff"/>
  <path id="Path_925" data-name="Path 925" d="M2.721.855l.3.928H4l-.783.566.3.928-.8-.566-.783.566.3-.928-.8-.566h.976Z" transform="translate(15.947 9.447)" fill="#fff"/>
  <path id="Path_926" data-name="Path 926" d="M2.271.855l.3.928h.976l-.8.566.3.928L2.271,2.71l-.783.566.3-.928-.8-.566H1.97Z" transform="translate(10.986 9.447)" fill="#fff"/>
  <path id="Path_927" data-name="Path 927" d="M1.822.855l.3.928H3.1l-.8.566.3.928L1.822,2.71l-.8.566.3-.928L.545,1.783h.976Z" transform="translate(6.025 9.447)" fill="#fff"/>
  <path id="Path_928" data-name="Path 928" d="M1.16,1.675l.289.928-.8-.578L.16,2.4C.377,1.892.63,1.4.895.916l.072.193h.976Z" transform="translate(1.767 10.119)" fill="#fff"/>
  <path id="Path_929" data-name="Path 929" d="M2.721,1.237l.3.928H4l-.783.578.3.916-.8-.566-.783.566.3-.916-.8-.578h.976Z" transform="translate(15.947 13.664)" fill="#fff"/>
  <path id="Path_930" data-name="Path 930" d="M2.271,1.237l.3.928h.976l-.8.578.3.916-.783-.566-.783.566.3-.916-.8-.578H1.97Z" transform="translate(10.986 13.664)" fill="#fff"/>
  <path id="Path_931" data-name="Path 931" d="M1.822,1.237l.3.928H3.1l-.8.578.3.916-.783-.566-.8.566.3-.916L.545,2.165h.976Z" transform="translate(6.025 13.664)" fill="#fff"/>
  <path id="Path_932" data-name="Path 932" d="M1.373,1.237l.3.928H2.65l-.8.578.3.916-.783-.566L.59,3.658l.3-.916L.1,2.165h.976Z" transform="translate(1.059 13.664)" fill="#fff"/>
  <path id="Path_933" data-name="Path 933" d="M2.721,1.619l.3.928H4l-.783.566.3.928-.8-.566-.783.566.3-.928-.8-.566h.976Z" transform="translate(15.947 17.887)" fill="#fff"/>
  <path id="Path_934" data-name="Path 934" d="M2.271,1.619l.3.928h.976l-.8.566.3.928-.783-.566-.783.566.3-.928-.8-.566H1.97Z" transform="translate(10.986 17.887)" fill="#fff"/>
  <path id="Path_935" data-name="Path 935" d="M1.822,1.619l.3.928H3.1l-.8.566.3.928-.783-.566-.8.566.3-.928L.545,2.547h.976Z" transform="translate(6.025 17.887)" fill="#fff"/>
  <path id="Path_936" data-name="Path 936" d="M1.373,1.619l.3.928H2.65l-.8.566.3.928-.783-.566L.59,4.041l.3-.928L.1,2.547h.976Z" transform="translate(1.059 17.887)" fill="#fff"/>
  <path id="Path_937" data-name="Path 937" d="M2.485,1.428l.3.928h.976l-.783.566.289.928-.783-.566L1.7,3.85,2,2.922,1.22,2.356h.964Z" transform="translate(13.477 15.776)" fill="#fff"/>
  <path id="Path_938" data-name="Path 938" d="M2.047,1.428l.3.928h.964l-.783.566.3.928-.783-.566-.783.566.289-.928L.77,2.356h.976Z" transform="translate(8.505 15.776)" fill="#fff"/>
  <path id="Path_939" data-name="Path 939" d="M1.6,1.428l.3.928h.976l-.783.566.289.928L1.6,3.283.814,3.85l.3-.928-.8-.566H1.3Z" transform="translate(3.54 15.776)" fill="#fff"/>
  <path id="Path_940" data-name="Path 940" d="M.117,2.071.419,3l-.41-.3C.045,2.3.081,1.9.142,1.5H.888Z" transform="translate(0.099 16.625)" fill="#fff"/>
  <path id="Path_941" data-name="Path 941" d="M2.485,1.046l.3.928h.976l-.783.566.289.928-.783-.578L1.7,3.468,2,2.54,1.22,1.974h.964Z" transform="translate(13.477 11.558)" fill="#fff"/>
  <path id="Path_942" data-name="Path 942" d="M2.047,1.046l.3.928h.964l-.783.566.3.928-.783-.578-.783.578.289-.928L.77,1.974h.976Z" transform="translate(8.505 11.558)" fill="#fff"/>
  <path id="Path_943" data-name="Path 943" d="M1.6,1.046l.3.928h.976l-.783.566.289.928L1.6,2.889l-.783.578.3-.928-.8-.566H1.3Z" transform="translate(3.54 11.558)" fill="#fff"/>
  <path id="Path_944" data-name="Path 944" d="M2.485.664l.3.928h.976l-.783.566.289.928-.783-.566L1.7,3.085,2,2.158,1.22,1.592h.964Z" transform="translate(13.477 7.336)" fill="#fff"/>
  <path id="Path_945" data-name="Path 945" d="M2.047.664l.3.928h.964l-.783.566.3.928-.783-.566-.783.566.289-.928L.77,1.592h.976Z" transform="translate(8.505 7.336)" fill="#fff"/>
  <path id="Path_946" data-name="Path 946" d="M2.112,2.531l.181.554-.771-.554L1.5,2.519l-.024.012-.759.554L.9,2.531l.12-.373L.329,1.664l.048-.072H1.2L1.5.664l.313.928h.964l-.783.566Z" transform="translate(3.634 7.335)" fill="#fff"/>
  <path id="Path_947" data-name="Path 947" d="M2.485.282l.3.928h.976l-.783.578.289.916-.783-.566L1.7,2.7,2,1.788,1.22,1.209h.964Z" transform="translate(13.477 3.114)" fill="#fff"/>
  <path id="Path_948" data-name="Path 948" d="M2.047.282l.3.928h.964l-.783.578.3.916-.783-.566L1.264,2.7l.289-.916L.77,1.209h.976Z" transform="translate(8.505 3.114)" fill="#fff"/>
</svg>
